#!OML:ASF F:\VICON\USERDATA\INSTALL\rory3\rory3.ASF
:FULLY-SPECIFIED
:DEGREES
409
root 3.13113 19.0683 -3.5113 87.1386 -26.2014 -54.4762
lowerback -13.6142 9.33003 14.2713
upperback -20.2674 11.1967 2.38394
thorax -13.6383 3.55058 -4.44838
lowerneck -10.551 11.3104 4.73852
upperneck 4.72875 13.7913 10.0619
head 2.97412 7.36277 3.31114
rclavicle 8.78628e-014 9.54166e-015
rhumerus 25.4506 -46.3541 -10.2587
rradius 20.0858
rwrist 12.4706
rhand -0.494828 -2.13529
rfingers 7.12502
rthumb 25.1163 -30.5033
lclavicle 8.78628e-014 9.54166e-015
lhumerus -25.1837 11.0585 -13.7424
lradius 20.4573
lwrist -35.2007
lhand -0.296665 33.1076
lfingers 7.12502
lthumb 25.3062 61.4489
rfemur 199.469 -183.205 -176.005
rtibia 61.3336
rfoot 56.628 -12.2882
rtoes 14.4021
lfemur -53.7658 26.0817 20.9077
ltibia 26.2999
lfoot -64.568 3.98152
ltoes 55.5309
410
root 3.13747 19.0474 -3.53525 86.5717 -25.4039 -54.3877
lowerback -13.126 9.24605 14.9987
upperback -19.9086 11.1474 2.48367
thorax -13.3804 3.47212 -4.75602
lowerneck -10.9146 11.315 4.77852
upperneck 4.40378 13.7933 9.94338
head 2.94066 7.355 3.27602
rclavicle 5.56597e-015 -1.27222e-014
rhumerus 25.4388 -47.4019 -10.6275
rradius 19.9473
rwrist 13.4251
rhand -0.23521 -1.81897
rfingers 7.12502
rthumb 25.3651 -30.1519
lclavicle 5.56597e-015 -1.27222e-014
lhumerus -25.1437 11.0008 -13.55
lradius 20.5596
lwrist -34.7134
lhand -0.0433544 33.3586
lfingers 7.12502
lthumb 25.5488 61.6653
rfemur 199.68 -182.476 -174.698
rtibia 60.6246
rfoot 55.68 -10.6201
rtoes 12.6907
lfemur -53.7887 25.7431 21.9512
ltibia 26.9366
lfoot -64.5998 2.76269
ltoes 55.6773
411
root 3.15122 19.0217 -3.57075 85.6939 -23.8017 -54.4401
lowerback -12.2108 9.17711 16.5419
upperback -19.538 11.1988 2.81828
thorax -13.319 3.33684 -5.25943
lowerneck -11.1045 11.308 4.90837
upperneck 4.2446 13.7727 9.72648
head 2.94675 7.336 3.19007
rclavicle 1.15295e-013 1.27222e-014
rhumerus 26.1413 -48.7033 -11.7039
rradius 19.6941
rwrist 14.5029
rhand -0.249173 -1.56471
rfingers 7.12502
rthumb 25.3517 -29.8995
lclavicle 1.15295e-013 1.27222e-014
lhumerus -25.0821 10.9683 -13.3831
lradius 20.497
lwrist -34.4252
lhand 0.0180916 33.3032
lfingers 7.12502
lthumb 25.6077 61.6014
rfemur 200.191 -181.835 -172.392
rtibia 59.9335
rfoot 56.2968 -14.0233
rtoes 16.6632
lfemur -53.5523 25.3804 24.0011
ltibia 27.581
lfoot -64.4108 2.64263
ltoes 55.7024
412
root 3.14795 19.0161 -3.57428 85.5523 -24.8137 -54.3303
lowerback -12.2005 9.12836 15.4752
upperback -19.3962 11.1771 2.53395
thorax -13.171 3.47535 -5.04337
lowerneck -10.957 11.2266 4.8331
upperneck 4.02798 13.7146 9.60556
head 2.8484 7.28998 3.13248
rclavicle -9.30312e-014 3.49861e-014
rhumerus 26.4684 -49.2761 -12.1841
rradius 19.4967
rwrist 14.9542
rhand -0.353875 -1.87653
rfingers 7.12502
rthumb 25.2514 -30.2256
lclavicle -9.30312e-014 3.49861e-014
lhumerus -24.8341 11.8729 -13.3881
lradius 20.1076
lwrist -35.4661
lhand -0.389141 32.4048
lfingers 7.12502
lthumb 25.2176 60.7586
rfemur 199.906 -180.9 -173.436
rtibia 59.3152
rfoot 55.2493 -12.2868
rtoes 14.847
lfemur -53.7967 25.0496 22.9845
ltibia 28.249
lfoot -64.4431 2.20604
ltoes 55.7419
413
root 3.13601 19.0248 -3.54698 86.0503 -28.2658 -53.9786
lowerback -13.0023 9.03905 12.0077
upperback -19.4252 11.0281 1.65301
thorax -12.9521 3.82628 -4.17512
lowerneck -10.7443 11.1393 4.63607
upperneck 3.81739 13.6668 9.57196
head 2.72497 7.2498 3.11779
rclavicle 1.11319e-014 6.36111e-015
rhumerus 26.6409 -49.649 -12.3945
rradius 19.2298
rwrist 15.4175
rhand -0.36401 -1.59498
rfingers 7.12502
rthumb 25.2417 -29.9454
lclavicle 1.11319e-014 6.36111e-015
lhumerus -24.5333 12.3825 -13.1866
lradius 19.8144
lwrist -36.0464
lhand -0.796961 31.9409
lfingers 7.12502
lthumb 24.8268 60.3491
rfemur 198.821 -179.622 -177.581
rtibia 58.7783
rfoot 56.2893 -14.7371
rtoes 18.6077
lfemur -54.5674 24.7013 19.0935
ltibia 28.8935
lfoot -64.6929 2.22231
ltoes 55.7036
414
root 3.13381 19.0251 -3.53598 86.1149 -30.3092 -53.8102
lowerback -13.2426 8.95974 9.96935
upperback -19.2923 10.9673 1.14702
thorax -12.7905 4.0525 -3.65814
lowerneck -10.6294 11.0825 4.48278
upperneck 3.61467 13.6455 9.48192
head 2.62938 7.2238 3.08849
rclavicle 1.59028e-015 3.49861e-014
rhumerus 27.3612 -50.5017 -13.2261
rradius 18.8752
rwrist 16.358
rhand -0.427187 -1.42507
rfingers 7.12502
rthumb 25.1811 -29.784
lclavicle 1.59028e-015 3.49861e-014
lhumerus -24.3044 11.9885 -12.6731
lradius 19.8222
lwrist -35.4453
lhand -1.14462 32.1933
lfingers 7.12502
lthumb 24.4936 60.647
rfemur 198.119 -178.582 -179.832
rtibia 58.2202
rfoot 55.6794 -13.7459
rtoes 17.4499
lfemur -54.8857 24.3378 16.8935
ltibia 29.4599
lfoot -64.7635 2.13059
ltoes 55.7089
415
root 3.13738 19.0179 -3.54479 85.8337 -30.796 -53.7952
lowerback -12.9643 8.90314 9.49096
upperback -19.0865 10.9604 1.04969
thorax -12.72 4.12 -3.54765
lowerneck -10.7119 11.0752 4.58815
upperneck 3.69887 13.6152 9.29927
head 2.69543 7.20801 3.02376
rclavicle -6.99722e-014 4.13472e-014
rhumerus 27.4406 -50.6816 -13.5107
rradius 18.8705
rwrist 16.5121
rhand -0.407016 -1.56681
rfingers 7.12502
rthumb 25.2005 -29.923
lclavicle -6.99722e-014 4.13472e-014
lhumerus -24.1751 11.5455 -12.2473
lradius 19.9907
lwrist -34.6593
lhand -1.4463 32.6624
lfingers 7.12502
lthumb 24.2044 61.155
rfemur 197.821 -177.749 -180.037
rtibia 57.6466
rfoot 55.9655 -14.8639
rtoes 18.1464
lfemur -54.737 24.0375 16.5284
ltibia 29.7215
lfoot -64.7944 1.45242
ltoes 55.9201
416
root 3.14263 19.0119 -3.55317 85.4825 -31.3762 -53.6845
lowerback -12.6693 8.83451 8.91895
upperback -18.8964 10.94 0.910019
thorax -12.6879 4.18596 -3.43947
lowerneck -10.9449 11.0214 4.82513
upperneck 4.05139 13.469 9.07951
head 2.89915 7.14751 2.95017
rclavicle 1.00187e-013 6.04305e-014
rhumerus 27.296 -50.6225 -13.5743
rradius 18.9715
rwrist 16.5168
rhand -0.358547 -1.92407
rfingers 7.12502
rthumb 25.2469 -30.2737
lclavicle 1.00187e-013 6.04305e-014
lhumerus -24.0996 10.8763 -11.7235
lradius 20.6807
lwrist -33.5421
lhand -0.840212 33.4541
lfingers 7.12502
lthumb 24.7854 61.868
rfemur 197.612 -176.939 -180.309
rtibia 57.0376
rfoot 56.0265 -17.209
rtoes 19.0887
lfemur -54.6073 23.6618 16.0669
ltibia 29.9275
lfoot -65.0286 1.69327
ltoes 55.8725
417
root 3.12206 19.0437 -3.53456 85.0548 -32.8931 -53.5669
lowerback -12.2683 8.68471 7.45599
upperback -18.6666 10.8479 0.551434
thorax -12.7577 4.31009 -3.13036
lowerneck -10.9537 11.0361 5.09158
upperneck 4.24595 13.439 8.95208
head 2.99806 7.13856 2.87981
rclavicle 4.77083e-015 -2.8625e-014
rhumerus 28.1966 -51.2994 -14.8725
rradius 18.8505
rwrist 17.4682
rhand -0.221451 -2.3674
rfingers 7.12502
rthumb 25.3782 -30.6985
lclavicle 4.77083e-015 -2.8625e-014
lhumerus -24.1029 9.66655 -11.2443
lradius 21.4386
lwrist -32.314
lhand -0.470881 33.7214
lfingers 7.12502
lthumb 25.1393 62.0862
rfemur 197.489 -176.158 -181.566
rtibia 56.2969
rfoot 55.8349 -15.8099
rtoes 14.8262
lfemur -54.097 23.1921 14.6107
ltibia 30.065
lfoot -65.2034 2.36131
ltoes 55.6338
418
root 3.12772 19.0276 -3.53885 84.9454 -32.8344 -53.4996
lowerback -12.3567 8.70304 7.66629
upperback -18.5304 10.844 0.501142
thorax -12.4866 4.29633 -3.26575
lowerneck -10.8486 11.0855 5.13178
upperneck 4.41031 13.4931 9.00414
head 3.0334 7.17193 2.89535
rclavicle -4.21423e-014 -4.77083e-014
rhumerus 29.0838 -51.7383 -16.1056
rradius 18.6374
rwrist 18.3582
rhand -0.155684 -2.19102
rfingers 7.12502
rthumb 25.4412 -30.5131
lclavicle -4.21423e-014 -4.77083e-014
lhumerus -24.0469 9.39066 -11.1023
lradius 21.6552
lwrist -32.2977
lhand -0.485707 33.3599
lfingers 7.12502
lthumb 25.1251 61.7267
rfemur 197.127 -175.331 -181.058
rtibia 55.6493
rfoot 55.7392 -19.3903
rtoes 19.9627
lfemur -54.3574 23.0369 14.7346
ltibia 30.5649
lfoot -65.2762 2.59919
ltoes 55.487
419
root 3.13126 19.0093 -3.54214 84.9143 -32.0947 -53.5573
lowerback -12.5233 8.80563 8.55759
upperback -18.3976 10.9187 0.642714
thorax -12.1138 4.25615 -3.5246
lowerneck -10.7293 11.1252 4.98972
upperneck 4.56381 13.5597 9.12737
head 3.04338 7.21074 2.96029
rclavicle -1.98785e-013 1.59028e-014
rhumerus 28.1442 -50.3375 -15.153
rradius 18.9079
rwrist 17.0391
rhand -0.292584 -2.37098
rfingers 7.12502
rthumb 25.3101 -30.7117
lclavicle -1.98785e-013 1.59028e-014
lhumerus -23.963 9.83477 -11.1047
lradius 21.719
lwrist -32.7809
lhand -0.456935 33.0113
lfingers 7.12502
lthumb 25.1526 61.3742
rfemur 196.738 -174.715 -179.546
rtibia 54.9611
rfoot 55.2045 -24.1522
rtoes 26.7404
lfemur -54.6235 23.0281 15.6261
ltibia 31.0352
lfoot -65.2738 3.34616
ltoes 55.3241
